<svg width="11" height="12" viewBox="0 0 11 12" fill="none" xmlns="http://www.w3.org/2000/svg">
<g clip-path="url(#clip0_212_49)">
<path d="M10.2643 8.3035C10.2643 8.42404 10.2419 8.5814 10.1973 8.7756C10.1527 8.9698 10.1058 9.1227 10.0567 9.23431C9.96293 9.45752 9.6906 9.69413 9.23971 9.94413C8.82007 10.1718 8.40489 10.2856 7.99418 10.2856C7.87364 10.2856 7.75534 10.2778 7.63926 10.2622C7.52319 10.2466 7.39485 10.2187 7.25422 10.1785C7.1136 10.1383 7.00868 10.106 6.93949 10.0814C6.87029 10.0568 6.74641 10.0111 6.56784 9.94413C6.38926 9.87716 6.27989 9.83698 6.23971 9.82359C5.80221 9.66734 5.41159 9.48207 5.06784 9.26779C4.50087 8.91511 3.91159 8.43297 3.29998 7.82136C2.68837 7.20975 2.20623 6.62047 1.85355 6.0535C1.63926 5.70975 1.454 5.31913 1.29775 4.88163C1.28435 4.84145 1.24418 4.73207 1.17721 4.5535C1.11025 4.37493 1.06449 4.25105 1.03993 4.18185C1.01538 4.11265 0.983015 4.00774 0.942836 3.86712C0.902658 3.72649 0.874756 3.59814 0.859131 3.48207C0.843506 3.366 0.835693 3.2477 0.835693 3.12716C0.835693 2.71645 0.949533 2.30127 1.17721 1.88163C1.42721 1.43073 1.66382 1.15841 1.88703 1.06466C1.99864 1.01556 2.15154 0.96868 2.34574 0.924037C2.53993 0.879394 2.6973 0.857073 2.81784 0.857073C2.88034 0.857073 2.92721 0.863769 2.95846 0.877162C3.03882 0.903948 3.15712 1.07359 3.31337 1.38609C3.36248 1.47091 3.42944 1.59145 3.51426 1.7477C3.59909 1.90395 3.67721 2.04569 3.74864 2.17292C3.82007 2.30015 3.88926 2.41957 3.95623 2.53118C3.96962 2.54904 4.00868 2.60484 4.07342 2.69859C4.13815 2.79234 4.18614 2.87158 4.21739 2.93631C4.24864 3.00105 4.26426 3.06466 4.26426 3.12716C4.26426 3.21645 4.20065 3.32806 4.07342 3.46198C3.94618 3.59591 3.80779 3.71868 3.65824 3.83029C3.50868 3.94189 3.37029 4.0602 3.24306 4.1852C3.11583 4.3102 3.05221 4.41288 3.05221 4.49323C3.05221 4.53341 3.06337 4.58364 3.08569 4.6439C3.10801 4.70417 3.12699 4.74993 3.14261 4.78118C3.15824 4.81243 3.18949 4.866 3.23636 4.94189C3.28324 5.01779 3.30891 5.0602 3.31337 5.06913C3.65266 5.68073 4.04105 6.20529 4.47855 6.64279C4.91605 7.08029 5.4406 7.46868 6.05221 7.80797C6.06114 7.81243 6.10355 7.8381 6.17944 7.88497C6.25534 7.93185 6.30891 7.9631 6.34016 7.97872C6.37141 7.99435 6.41717 8.01332 6.47743 8.03564C6.5377 8.05797 6.58793 8.06913 6.6281 8.06913C6.70846 8.06913 6.81114 8.00551 6.93614 7.87828C7.06114 7.75105 7.17944 7.61265 7.29105 7.4631C7.40266 7.31355 7.52543 7.17515 7.65935 7.04792C7.79328 6.92069 7.90489 6.85707 7.99418 6.85707C8.05668 6.85707 8.12029 6.8727 8.18502 6.90395C8.24976 6.9352 8.329 6.98319 8.42275 7.04792C8.5165 7.11265 8.5723 7.15172 8.59016 7.16511C8.70176 7.23207 8.82118 7.30127 8.94842 7.3727C9.07565 7.44413 9.21739 7.52225 9.37364 7.60707C9.52989 7.69189 9.65043 7.75886 9.73525 7.80797C10.0477 7.96422 10.2174 8.08252 10.2442 8.16288C10.2576 8.19413 10.2643 8.241 10.2643 8.3035Z" fill="white"/>
</g>
<defs>
<clipPath id="clip0_212_49">
<rect width="9.44" height="12" fill="white" transform="matrix(1 0 0 -1 0.829956 12)"/>
</clipPath>
</defs>
</svg>
