<svg width="13" height="12" viewBox="0 0 13 12" fill="none" xmlns="http://www.w3.org/2000/svg">
<g clip-path="url(#clip0_212_52)">
<path d="M12.1399 4.75443V10.0714C12.1399 10.366 12.035 10.6183 11.8252 10.8281C11.6153 11.0379 11.3631 11.1428 11.0685 11.1428H1.21132C0.916678 11.1428 0.664446 11.0379 0.454625 10.8281C0.244803 10.6183 0.139893 10.366 0.139893 10.0714V4.75443C0.336321 4.97318 0.561768 5.16738 0.816232 5.33702C2.4323 6.43523 3.54168 7.20532 4.14436 7.64729C4.39882 7.83479 4.60529 7.98099 4.76378 8.0859C4.92226 8.19081 5.1332 8.29796 5.39659 8.40733C5.65998 8.51671 5.90552 8.57139 6.1332 8.57139H6.13989H6.14659C6.37427 8.57139 6.6198 8.51671 6.8832 8.40733C7.14659 8.29796 7.35753 8.19081 7.51601 8.0859C7.67449 7.98099 7.88096 7.83479 8.13543 7.64729C8.89436 7.09818 10.006 6.32809 11.4702 5.33702C11.7247 5.16291 11.9479 4.96872 12.1399 4.75443ZM12.1399 2.78568C12.1399 3.13836 12.0305 3.47541 11.8118 3.79684C11.593 4.11827 11.3207 4.39282 10.9948 4.6205C9.31623 5.78568 8.27159 6.51113 7.86087 6.79684C7.81623 6.82809 7.72137 6.89617 7.57628 7.00108C7.43119 7.10599 7.31065 7.19081 7.21467 7.25555C7.11869 7.32028 7.00262 7.39282 6.86646 7.47318C6.73029 7.55354 6.60195 7.6138 6.48141 7.65398C6.36087 7.69416 6.24927 7.71425 6.14659 7.71425H6.13989H6.1332C6.03052 7.71425 5.91891 7.69416 5.79837 7.65398C5.67784 7.6138 5.54949 7.55354 5.41333 7.47318C5.27717 7.39282 5.1611 7.32028 5.06512 7.25555C4.96913 7.19081 4.8486 7.10599 4.70351 7.00108C4.55842 6.89617 4.46355 6.82809 4.41891 6.79684C4.01266 6.51113 3.42784 6.10376 2.66445 5.57474C1.90105 5.04572 1.44346 4.72764 1.29168 4.6205C1.01489 4.433 0.753732 4.17519 0.508196 3.84706C0.26266 3.51894 0.139893 3.21425 0.139893 2.933C0.139893 2.58479 0.232527 2.29461 0.417794 2.06247C0.603062 1.83032 0.867571 1.71425 1.21132 1.71425H11.0685C11.3586 1.71425 11.6098 1.81916 11.8218 2.02898C12.0339 2.2388 12.1399 2.49104 12.1399 2.78568Z" fill="white"/>
</g>
<defs>
<clipPath id="clip0_212_52">
<rect width="12.02" height="12" fill="white" transform="matrix(1 0 0 -1 0.129883 12)"/>
</clipPath>
</defs>
</svg>
